<?xml version="1.0" encoding="UTF-8" standalone="no"?>
<svg
   xmlns:dc="http://purl.org/dc/elements/1.1/"
   xmlns:cc="http://creativecommons.org/ns#"
   xmlns:rdf="http://www.w3.org/1999/02/22-rdf-syntax-ns#"
   xmlns:svg="http://www.w3.org/2000/svg"
   xmlns="http://www.w3.org/2000/svg"
   xmlns:sodipodi="http://sodipodi.sourceforge.net/DTD/sodipodi-0.dtd"
   xmlns:inkscape="http://www.inkscape.org/namespaces/inkscape"
   version="1.1"
   viewBox="0 0 24 24"
   enable-background="new 0 0 24 24"
   id="svg10"
   sodipodi:docname="menu.svg"
   inkscape:version="0.92.4 5da689c313, 2019-01-14">
  <metadata
     id="metadata16">
    <rdf:RDF>
      <cc:Work
         rdf:about="">
        <dc:format>image/svg+xml</dc:format>
        <dc:type
           rdf:resource="http://purl.org/dc/dcmitype/StillImage" />
      </cc:Work>
    </rdf:RDF>
  </metadata>
  <defs
     id="defs14" />
  <sodipodi:namedview
     pagecolor="#ffffff"
     bordercolor="#666666"
     borderopacity="1"
     objecttolerance="10"
     gridtolerance="10"
     guidetolerance="10"
     inkscape:pageopacity="0"
     inkscape:pageshadow="2"
     inkscape:window-width="1920"
     inkscape:window-height="1040"
     id="namedview12"
     showgrid="false"
     inkscape:zoom="9.8333333"
     inkscape:cx="11.847458"
     inkscape:cy="12"
     inkscape:window-x="0"
     inkscape:window-y="0"
     inkscape:window-maximized="1"
     inkscape:current-layer="g8" />
  <g
     id="g8">
    <path
       d="M24,3c0-0.6-0.4-1-1-1H1C0.4,2,0,2.4,0,3v2c0,0.6,0.4,1,1,1h22c0.6,0,1-0.4,1-1V3z"
       id="path2"
       style="fill:#ececec;fill-opacity:1" />
    <path
       d="M24,11c0-0.6-0.4-1-1-1H1c-0.6,0-1,0.4-1,1v2c0,0.6,0.4,1,1,1h22c0.6,0,1-0.4,1-1V11z"
       id="path4"
       style="fill:#ececec;fill-opacity:1" />
    <path
       d="M24,19c0-0.6-0.4-1-1-1H1c-0.6,0-1,0.4-1,1v2c0,0.6,0.4,1,1,1h22c0.6,0,1-0.4,1-1V19z"
       id="path6"
       style="fill:#ececec;fill-opacity:1" />
  </g>
</svg>
